<?xml version="1.0" encoding="iso-8859-1"?>
<!-- Generator: Adobe Illustrator 19.0.0, SVG Export Plug-In . SVG Version: 6.00 Build 0)  -->
<svg xmlns="http://www.w3.org/2000/svg" xmlns:xlink="http://www.w3.org/1999/xlink" version="1.1" id="Layer_1" x="0px" y="0px" viewBox="0 0 511.945 511.945" style="enable-background:new 0 0 511.945 511.945;" xml:space="preserve" width="512" height="512">
<g id="XMLID_734_">
	<g id="XMLID_715_">
		<g id="XMLID_716_">
			<path id="XMLID_733_" d="M127.945,255.884c32.774-0.003,65.559-12.479,90.51-37.43c38.094-38.093,48.258-96.411,25.293-145.117     c-2.355-4.996-8.314-7.135-13.31-4.78c-4.995,2.355-7.136,8.314-4.78,13.31c19.377,41.096,10.799,90.303-21.346,122.445     c-42.109,42.109-110.625,42.109-152.734,0s-42.109-110.625,0-152.734c31.932-31.934,80.897-40.624,121.845-21.626     c5.013,2.325,10.957,0.146,13.28-4.862c2.324-5.01,0.147-10.956-4.862-13.28C133.309-10.706,75.279-0.408,37.436,37.435     c-49.907,49.907-49.907,131.112,0,181.02C62.393,243.411,95.163,255.888,127.945,255.884z"/>
			<path id="XMLID_732_" d="M204.507,138.041h7.264c5.522,0,10-4.478,10-10s-4.478-10-10-10h-7.264c-5.522,0-10,4.478-10,10     S198.984,138.041,204.507,138.041z"/>
			<path id="XMLID_731_" d="M44.12,117.849c-5.522,0-10,4.478-10,10s4.478,10,10,10h7.264c5.522,0,10-4.478,10-10s-4.478-10-10-10     H44.12z"/>
			<path id="XMLID_730_" d="M117.85,204.507v7.264c0,5.522,4.478,10,10,10s10-4.478,10-10v-7.264c0-5.522-4.478-10-10-10     S117.85,198.984,117.85,204.507z"/>
			<path id="XMLID_729_" d="M138.041,51.727c0.007-5.523-4.465-10.006-9.987-10.013c-0.005,0-0.009,0-0.013,0     c-5.518,0-9.993,4.469-10,9.987l-0.09,71.194l-28.916,21.373c-4.441,3.283-5.38,9.545-2.098,13.986     c1.961,2.653,4.985,4.057,8.05,4.057c2.065,0,4.148-0.638,5.937-1.959l32.966-24.366c2.547-1.883,4.052-4.861,4.056-8.029     L138.041,51.727z"/>
			<path id="XMLID_728_" d="M211.385,54.505c2.63,0,5.21-1.069,7.07-2.93s2.93-4.44,2.93-7.07s-1.069-5.21-2.93-7.069     c-1.86-1.86-4.44-2.931-7.07-2.931s-5.21,1.07-7.069,2.931c-1.86,1.859-2.931,4.439-2.931,7.069s1.07,5.21,2.931,7.07     C206.175,53.435,208.755,54.505,211.385,54.505z"/>
			<path id="XMLID_719_" d="M419.131,343.946l-27.928-36.174c-21.549-27.911-55.466-44.574-90.729-44.574H198.542     c-46.019,0-87.273,27.415-105.102,69.843l-5.344,12.72c-0.262,0.192-0.517,0.395-0.76,0.613l-25.693,22.988H10     c-5.522,0-10,4.478-10,10s4.478,10,10,10h44.532v29.705h-17.56c-5.522,0-10,4.478-10,10s4.478,10,10,10h17.56v26.438     c0,5.522,4.478,10,10,10h33.764c4.587,20.814,23.169,36.439,45.342,36.439s40.755-15.625,45.343-36.439h117.13     c5.522,0,10-4.478,10-10s-4.478-10-10-10h-51.3v-91.68h159.495c4.558,0,9.018,0.417,13.362,1.175v17.937     c0,16.093,13.092,29.185,29.185,29.185h29.315c3.712,9.059,5.775,18.962,5.775,29.342v14.042h-23.764     c-4.587-20.814-23.169-36.438-45.342-36.438c-25.606,0-46.439,20.832-46.439,46.438s20.833,46.439,46.439,46.439     c22.173,0,40.755-15.625,45.342-36.439h33.764c5.522,0,10-4.478,10-10v-24.042C511.945,389.243,470.737,346.469,419.131,343.946z      M422.839,491.945c-14.579,0-26.439-11.86-26.439-26.439c0-14.578,11.86-26.438,26.439-26.438     c14.578,0,26.438,11.86,26.438,26.438C449.277,480.085,437.417,491.945,422.839,491.945z M198.542,283.198h36.271v60.628h-124.21     l1.276-3.038C126.58,305.803,160.597,283.198,198.542,283.198z M94.926,366.419v20.526c0,7.015-5.706,12.721-12.721,12.721     h-7.673v-15L94.926,366.419z M143.639,491.945c-14.578,0-26.438-11.86-26.438-26.439c0-14.578,11.86-26.438,26.438-26.438     c14.579,0,26.439,11.86,26.439,26.438C170.078,480.085,158.218,491.945,143.639,491.945z M234.813,455.506h-45.831     c-4.588-20.814-23.17-36.438-45.343-36.438s-40.755,15.624-45.342,36.438H74.532v-35.84h7.673     c18.042,0,32.721-14.679,32.721-32.721v-23.119h119.887V455.506z M254.813,283.198h45.662c29.109,0,57.109,13.756,74.898,36.797     l18.399,23.831H254.813V283.198z M456.854,392.122c-5.064,0-9.185-4.12-9.185-9.185v-11.565     c10.295,4.92,19.347,12.038,26.536,20.749H456.854z"/>
			<path id="XMLID_718_" d="M276.65,381.052c-5.522,0-10,4.478-10,10s4.478,10,10,10h16.804c5.522,0,10-4.478,10-10s-4.478-10-10-10     H276.65z"/>
			<path id="XMLID_717_" d="M346.115,455.505c-2.641,0-5.21,1.07-7.08,2.931c-1.86,1.859-2.92,4.439-2.92,7.069s1.06,5.21,2.92,7.07     c1.87,1.86,4.439,2.93,7.08,2.93c2.63,0,5.21-1.069,7.07-2.93c1.859-1.86,2.93-4.44,2.93-7.07s-1.07-5.21-2.93-7.069     C351.325,456.575,348.745,455.505,346.115,455.505z"/>
		</g>
	</g>
</g>















</svg>
