<svg id="Capa_1" enable-background="new 0 0 512 512" height="512" viewBox="0 0 512 512" width="512" xmlns="http://www.w3.org/2000/svg"><g><path d="m509.662 311.33c-.847-1.876 5.966 8.235-104.504-152.332-2.799-4.068-7.42-6.498-12.357-6.498h-16.801v-15c0-24.813-20.187-45-45-45s-45 20.187-45 45v15h-220c-35.841 0-65 29.159-65 65v250c0 8.284 6.716 15 15 15h57.861c26.737 38.676 83.578 38.623 110.279 0h128.737c12.113 17.791 32.525 29.5 55.624 29.5s43.511-11.709 55.624-29.5h71.875c8.284 0 15-6.716 15-15v-150c0-2.091-.457-4.221-1.338-6.17zm-42.189-8.83h-105.473v-60h64.193zm-151.473-165c0-8.271 6.729-15 15-15s15 6.729 15 15v15h-30zm-250 45h318.913l20.64 30h-58.553c-8.284 0-15 6.716-15 15v90c0 8.284 6.716 15 15 15h134v60h-70.225c-24.677-20.004-59.862-20.013-84.55 0h-155.037c-24.611-20.005-59.759-20.012-84.377 0h-55.811v-175c0-19.299 15.701-35 35-35zm-35 270v-30h34.729c-3.285 9.421-4.488 19.517-3.234 30zm98 29c-20.401 0-37-16.598-37-37s16.599-37 37-37 37 16.598 37 37-16.599 37-37 37zm66.506-29c1.255-10.491.048-20.589-3.234-30h112.778c-3.287 9.346-4.554 19.46-3.339 30zm172.994 29.5c-20.54 0-37.25-16.71-37.25-37.25s16.71-37.25 37.25-37.25 37.25 16.71 37.25 37.25-16.71 37.25-37.25 37.25zm66.79-29.5c1.215-10.536-.051-20.65-3.339-30h49.049v30z"/><path d="m226 332.5h60c8.284 0 15-6.716 15-15v-90c0-8.284-6.716-15-15-15h-60c-8.284 0-15 6.716-15 15v90c0 8.284 6.716 15 15 15zm15-90h30v60h-30z"/><path d="m91 288.5h16v13.999c0 8.284 6.716 15 15 15s15-6.716 15-15v-13.999h14c8.284 0 15-6.716 15-15s-6.716-15-15-15h-14v-16c0-8.284-6.716-15-15-15s-15 6.716-15 15v16h-16c-8.284 0-15 6.716-15 15s6.716 15 15 15z"/><path d="m331 61c8.284 0 15-6.716 15-15v-31c0-8.284-6.716-15-15-15s-15 6.716-15 15v31c0 8.284 6.716 15 15 15z"/><path d="m262.967 74.18c5.857 5.858 15.354 5.858 21.213 0 5.858-5.858 5.858-15.355 0-21.213l-21.92-21.92c-5.856-5.858-15.354-5.857-21.213 0-5.858 5.858-5.858 15.355 0 21.213z"/><path d="m399.033 74.18 21.92-21.92c5.858-5.858 5.858-15.355 0-21.213-5.857-5.857-15.355-5.858-21.213 0l-21.92 21.92c-5.858 5.858-5.858 15.355 0 21.213 5.857 5.858 15.356 5.859 21.213 0z"/></g></svg>